# xmcd
#
# Track frame offsets: 
#        180
#        16220
#        26832
#        45700
#        63030
#        78715
#        89980
#        105600
#        121607
#        137267
#        148735
#        162647
#        182240
#        198132
#        213597
#        227345
#
# Disc length: 3272 seconds
#
# Revision: 1
# Processed by: cddbd v1.5.2PL0 Copyright (c) Steve Scherf et al.
# Submitted via: ExactAudioCopy v0.99pb4
#
DISCID=da0cc610
DTITLE=Willie Nelson - Across The Tracks - The Best Of Willie Nelson
DYEAR=1987
DGENRE=Country
TTITLE0=Always On My Mind
TTITLE1=Blue Eyes Crying In The Rain
TTITLE2=Until It's Time For You To Go
TTITLE3=Unchained Melody
TTITLE4=She's Out Of My Life
TTITLE5=Why Are You Pickin' On Me?
TTITLE6=I'd Have To Be Crazy
TTITLE7=To All The Girls I've Loved Before (with Julio Iglesias)
TTITLE8=Mamas, Don't Let Your Babies Grow Up To Be Cowboys
TTITLE9=On The Road Again
TTITLE10=My Heros Have Always Been Cowboys
TTITLE11=Georgia On My Mind
TTITLE12=Let It Be Me
TTITLE13=Moonlight In Vermont
TTITLE14=Heartbreak Hotel
TTITLE15=Help Me Make It Through The Night
EXTD=
EXTT0=
EXTT1=
EXTT2=
EXTT3=
EXTT4=
EXTT5=
EXTT6=
EXTT7=
EXTT8=
EXTT9=
EXTT10=
EXTT11=
EXTT12=
EXTT13=
EXTT14=
EXTT15=
PLAYORDER=
